<svg width="54" height="62" viewBox="0 0 54 62" fill="none" xmlns="http://www.w3.org/2000/svg">
<path d="M53.5 52.3L45 8.00001C44.7 6.40001 43.8 4.90001 42.4 4.00001C41 3.10001 39.4 2.70001 37.7 3.00001L30.8 4.30001C29.8 2.20001 27.6 0.700012 25.2 0.700012H15.9H6.59999C3.09999 0.800012 0.299988 3.60001 0.299988 7.00001V55C0.299988 58.4 3.09999 61.3 6.59999 61.3H15.9H25.2C28.6 61.3 31.5 58.5 31.5 55V26.3L37 55.5C37.3 57.1 38.2 58.6 39.6 59.5C40.6 60.2 41.9 60.6 43.1 60.6C43.5 60.6 43.9 60.6 44.3 60.5L48.6 59.7C52 59 54.2 55.7 53.5 52.3ZM26.9 7.00001V18.8H18.1V5.30001H25.1C26.1 5.30001 26.9 6.00001 26.9 7.00001ZM13.6 44.4H4.79999V20.4H13.6V44.4ZM18.1 23.3H26.9V37.8H18.1V23.3ZM6.59999 5.30001H13.6V16H4.79999V7.00001C4.79999 6.00001 5.59999 5.30001 6.59999 5.30001ZM4.79999 55V48.9H13.6V56.7H6.59999C5.59999 56.8 4.79999 56 4.79999 55ZM25.2 56.8H18.2V42.3H27V55C26.9 56 26.1 56.8 25.2 56.8ZM47.7 55.2L43.5 56C43 56.1 42.6 56 42.2 55.7C41.8 55.4 41.6 55 41.5 54.6L32.6 8.60001L38.6 7.50001C39.1 7.40001 39.5 7.50001 39.9 7.80001C40.3 8.10001 40.5 8.50001 40.6 8.90001L49.1 53.2C49.3 54.1 48.7 55 47.7 55.2Z" fill="#80BCBD"/>
</svg>
