<svg width="24" height="25" viewBox="0 0 24 25" fill="none" xmlns="http://www.w3.org/2000/svg">
<path fill-rule="evenodd" clip-rule="evenodd" d="M14.0992 2.89109C15.6207 1.36964 18.0875 1.36964 19.6089 2.89109C21.1304 4.41255 21.1304 6.87932 19.6089 8.40077L12.0149 15.9948C11.5869 16.4228 11.3255 16.6842 11.0342 16.9115C10.691 17.1792 10.3196 17.4087 9.92667 17.596C9.59315 17.7549 9.24244 17.8718 8.66818 18.0632L5.99553 18.9541L5.35386 19.168C4.77951 19.3594 4.14629 19.2099 3.7182 18.7818C3.2901 18.3537 3.14062 17.7205 3.33207 17.1462L4.43683 13.8318C4.62822 13.2576 4.7451 12.9069 4.90405 12.5734C5.09132 12.1804 5.32084 11.809 5.58856 11.4658C5.81578 11.1745 6.07719 10.9131 6.50525 10.4851L14.0992 2.89109ZM5.96092 17.3845L5.11556 16.5391L5.84398 14.3538C6.05606 13.7176 6.14366 13.4589 6.25814 13.2187C6.39854 12.9241 6.57061 12.6457 6.77132 12.3883C6.93497 12.1785 7.12718 11.9845 7.60141 11.5102L13.4924 5.61927C13.7355 6.22927 14.147 6.96549 14.8408 7.65927C15.5345 8.35306 16.2708 8.76447 16.8807 9.00764L10.9898 14.8986C10.5155 15.3728 10.3215 15.565 10.1117 15.7287C9.85436 15.9294 9.57594 16.1015 9.28134 16.2419C9.04113 16.3564 8.78244 16.444 8.14619 16.656L5.96092 17.3845ZM18.076 7.81241C17.9521 7.78522 17.7973 7.74432 17.6213 7.68325C17.1373 7.51532 16.5006 7.19778 15.9014 6.59861C15.3022 5.99944 14.9847 5.36276 14.8168 4.87873C14.7557 4.7027 14.7148 4.54787 14.6876 4.42404L15.1599 3.95175C16.0956 3.01608 17.6126 3.01608 18.5483 3.95175C19.4839 4.88742 19.4839 6.40444 18.5483 7.34011L18.076 7.81241ZM3.25002 22.5C3.25002 22.0858 3.58581 21.75 4.00002 21.75H20V23.25H4.00002C3.58581 23.25 3.25002 22.9142 3.25002 22.5Z" fill="#121212" fill-opacity="0.87"/>
</svg>
