<svg width="320" height="349" viewBox="0 0 320 349" fill="none" xmlns="http://www.w3.org/2000/svg">
<g clip-path="url(#clip0_79_1091)">
<path d="M134.659 161.915C119.626 161.915 104.93 157.503 92.4303 149.235C79.9306 140.968 70.1883 129.217 64.4353 115.469C58.6824 101.721 57.1771 86.5928 60.1099 71.9978C63.0428 57.4028 70.282 43.9965 80.9121 33.4741C91.5422 22.9517 105.086 15.7859 119.83 12.8827C134.575 9.97962 149.858 11.4696 163.747 17.1643C177.635 22.859 189.507 32.5026 197.859 44.8756C206.211 57.2486 210.668 71.7953 210.668 86.6762C210.646 106.624 202.63 125.748 188.381 139.853C174.131 153.959 154.811 161.893 134.659 161.915ZM134.659 12.6219C119.862 12.6219 105.398 16.9651 93.0954 25.1023C80.7925 33.2395 71.2036 44.8052 65.5412 58.3369C59.8788 71.8685 58.3973 86.7584 61.284 101.124C64.1706 115.489 71.2958 128.684 81.7585 139.041C92.2212 149.397 105.552 156.45 120.064 159.308C134.576 162.165 149.618 160.698 163.288 155.093C176.959 149.488 188.643 139.997 196.863 127.819C205.084 115.64 209.471 101.323 209.471 86.6762C209.449 67.0426 201.56 48.2195 187.535 34.3364C173.509 20.4534 154.494 12.6441 134.659 12.6219Z" fill="#F2F2F2"/>
<path d="M140.459 103.139H189.197C189.356 103.139 189.508 103.077 189.62 102.966C189.733 102.855 189.796 102.704 189.796 102.547C189.796 102.39 189.733 102.239 189.62 102.128C189.508 102.017 189.356 101.955 189.197 101.955H140.459C140.301 101.955 140.148 102.017 140.036 102.128C139.924 102.239 139.861 102.39 139.861 102.547C139.861 102.704 139.924 102.855 140.036 102.966C140.148 103.077 140.301 103.139 140.459 103.139Z" fill="#3F3D56"/>
<path d="M201.34 101.362C197.272 101.367 193.372 102.969 190.495 105.816C187.619 108.663 186.001 112.524 185.996 116.551V180.963C186.001 184.99 187.619 188.851 190.495 191.698C193.372 194.546 197.272 196.147 201.34 196.152H302.322C306.39 196.147 310.29 194.546 313.167 191.698C316.043 188.851 317.662 184.99 317.666 180.963V116.551C317.662 112.524 316.043 108.663 313.167 105.816C310.29 102.969 306.39 101.367 302.322 101.362H201.34Z" fill="white"/>
<path d="M302.322 196.744H201.34C197.113 196.74 193.061 195.075 190.072 192.117C187.083 189.158 185.402 185.147 185.397 180.963V116.551C185.402 112.367 187.083 108.356 190.072 105.397C193.061 102.439 197.113 100.775 201.34 100.77H302.322C306.549 100.775 310.601 102.439 313.59 105.397C316.578 108.356 318.26 112.367 318.264 116.551V180.963C318.26 185.147 316.578 189.158 313.59 192.117C310.601 195.075 306.549 196.74 302.322 196.744ZM201.34 101.955C197.431 101.959 193.683 103.498 190.918 106.235C188.154 108.971 186.599 112.681 186.594 116.551V180.963C186.599 184.833 188.154 188.543 190.918 191.28C193.683 194.016 197.431 195.555 201.34 195.56H302.322C306.231 195.555 309.979 194.016 312.744 191.28C315.508 188.543 317.063 184.833 317.067 180.963V116.551C317.063 112.681 315.508 108.971 312.744 106.235C309.979 103.498 306.231 101.959 302.322 101.955H201.34Z" fill="#3F3D56"/>
<path d="M138.728 97.5939C137.218 97.8535 135.871 98.6859 134.972 99.9141C134.072 101.142 133.693 102.669 133.914 104.17C133.964 104.475 134.039 104.774 134.139 105.067L104.03 131.333L115.183 139.065L141.791 108.383C142.983 107.88 143.973 107 144.607 105.882C145.24 104.763 145.482 103.468 145.294 102.199C145.18 101.478 144.924 100.787 144.54 100.164C144.156 99.5409 143.652 98.999 143.056 98.5689C142.46 98.1389 141.785 97.8292 141.069 97.6575C140.352 97.4858 139.608 97.4555 138.88 97.5682C138.829 97.5761 138.779 97.5847 138.728 97.5939Z" fill="#A0616A"/>
<path d="M127.307 127.317C127.307 127.317 120.514 135.06 112.243 143.828C111.668 144.432 111.094 145.042 110.501 145.659C105.474 150.931 100.057 156.405 95.3591 160.653C90.3496 165.197 86.1541 168.361 84.1192 168.438C83.9498 168.449 83.7797 168.431 83.6165 168.384C77.5297 166.572 82.5452 168.728 79.9417 172.407C77.3263 176.092 77.6495 171.258 71.7901 168.384C65.9428 165.511 69.055 168.367 66.7208 172.905C65.9967 174.327 59.6406 174.036 51.2616 172.97C50.316 165.061 48.9394 158.236 48.9394 158.236C48.9223 153.492 49.4118 148.76 50.3997 144.118C64.9972 143.858 77.0689 143.71 77.6854 143.899C79.2774 144.379 82.7008 143.164 86.4833 141.049C87.022 140.747 88.0394 140.048 89.386 139.065C90.5771 138.2 92.0134 137.122 93.6115 135.913C95.4069 134.539 98.4653 133.786 99.4588 131.393C102.344 124.485 101.356 129.639 102.128 129.319C103.008 128.952 104.564 128.81 105.474 128.282C105.723 128.175 105.927 127.987 106.055 127.749C106.182 127.511 106.224 127.238 106.174 126.973C106.13 126.748 106.053 126.531 105.947 126.327C105.121 124.686 106.377 124.526 107.562 124.355C108.054 124.331 108.532 124.191 108.957 123.946C113.715 120.19 117.318 117.305 117.318 117.305L118.611 118.608L118.617 118.614L126.266 126.28L127.307 127.317Z" fill="#3F3D56"/>
<path d="M120.782 348.273H45.1446C41.9069 348.273 39.2727 344.981 39.2727 340.936V261.379C39.2727 257.334 41.9069 254.042 45.1446 254.042H120.782C124.019 254.042 126.654 257.334 126.654 261.379V340.936C126.654 344.981 124.019 348.273 120.782 348.273Z" fill="#F2F2F2"/>
<path d="M-0.000366528 348.11C-0.0228377 348.321 0.0391409 348.533 0.17229 348.699C0.30544 348.865 0.499159 348.973 0.711886 349H319.287C319.49 348.953 319.671 348.839 319.8 348.678C319.929 348.516 320 348.316 320 348.11C320 347.904 319.929 347.704 319.8 347.543C319.671 347.381 319.49 347.267 319.287 347.22H0.71185C0.499132 347.247 0.305431 347.355 0.17229 347.521C0.0391499 347.688 -0.0228306 347.899 -0.000366528 348.11Z" fill="#CCCCCC"/>
<path d="M173.305 337.24L180.93 337.239L184.558 308.122L173.303 308.123L173.305 337.24Z" fill="#A0616A"/>
<path d="M173.036 345.115L196.487 345.114V344.82C196.487 342.424 195.525 340.126 193.813 338.432C192.102 336.737 189.78 335.785 187.359 335.785L183.075 332.568L175.083 335.786L173.035 335.786L173.036 345.115Z" fill="#092635"/>
<path d="M125.938 333.769L133.278 335.814L144.743 308.76L133.908 305.741L125.938 333.769Z" fill="#A0616A"/>
<path d="M123.523 341.277L146.097 347.567L146.177 347.285C146.833 344.978 146.537 342.508 145.353 340.418C144.169 338.328 142.195 336.789 139.865 336.139L136.622 331.893L128.047 332.846L126.077 332.297L123.523 341.277Z" fill="#092635"/>
<path d="M106.396 209.778C106.396 209.778 103.954 209.537 110.214 211.682C116.989 214.01 127.271 213.708 137.117 217.203C140.157 218.282 143.239 219.383 146.298 220.485C146.914 220.705 147.531 220.93 148.147 221.149C152.127 222.589 156.041 224.028 159.74 225.403C160.261 225.598 160.775 225.794 161.284 225.983C161.296 225.989 161.308 225.989 161.314 225.995C173.374 230.533 182.86 234.419 184.428 235.972C186.104 237.63 186.798 248.839 186.99 262.69C187.337 288.361 185.966 323.113 185.966 323.113L171.86 323.06C171.86 323.06 171.77 322.751 171.596 322.177C171.285 321.116 170.705 319.144 169.932 316.566C166.724 305.802 160.267 284.468 156.7 274.699C155.694 271.938 154.916 270.102 154.503 269.687C152.109 267.258 154.503 266.186 156.897 264.645C159.291 263.105 156.897 262.631 155.138 260.617C153.378 258.603 155.796 254.065 155.796 254.065C155.796 254.065 154.204 254.023 151.666 253.958C147.92 253.863 142.09 253.721 136.255 253.579C136.249 253.585 136.249 253.585 136.249 253.579C134.052 253.525 131.856 253.472 129.773 253.425C128.157 253.383 126.607 253.348 125.171 253.312C120.867 253.217 117.612 253.152 116.798 253.152C114.14 253.152 116.205 253.152 114.601 251.073C114.355 250.762 114.089 250.467 113.805 250.19C113.403 249.746 112.962 249.338 112.488 248.97C112.153 248.816 112.608 249.769 112.357 251.008C112.219 251.679 111.898 252.3 111.429 252.803C109.053 255.415 101.763 252.595 101.763 252.595C89.7694 258.532 79.93 258.105 72.353 255.327C66.9103 253.251 62.0283 249.953 58.0908 245.694C56.5323 244.071 55.1335 242.306 53.9133 240.421L52.9257 240.237C52.9257 240.237 51.597 196.17 53.1291 193.19C55.5171 188.545 90.8346 192.005 90.8346 192.005L106.396 209.778Z" fill="#092635"/>
<path d="M172.18 31.4549H220.918C221.076 31.4549 221.229 31.3925 221.341 31.2814C221.453 31.1703 221.516 31.0196 221.516 30.8625C221.516 30.7053 221.453 30.5546 221.341 30.4435C221.229 30.3324 221.076 30.27 220.918 30.27H172.18C172.021 30.27 171.869 30.3324 171.757 30.4435C171.644 30.5546 171.581 30.7053 171.581 30.8625C171.581 31.0196 171.644 31.1703 171.757 31.2814C171.869 31.3925 172.021 31.4549 172.18 31.4549Z" fill="#3F3D56"/>
<path d="M238.165 78.5699C228.284 65.5594 222.572 51.0102 222.385 34.4231C222.067 33.5292 222.119 32.5468 222.532 31.6914C222.944 30.836 223.683 30.1775 224.585 29.8603L258.267 18.0635C259.17 17.7483 260.163 17.8007 261.027 18.2089C261.891 18.6172 262.556 19.3481 262.876 20.2413L278.657 64.3881C278.975 65.282 278.922 66.2645 278.51 67.1198C278.097 67.9752 277.359 68.6337 276.457 68.9509L242.775 80.7477C241.872 81.0629 240.879 81.0106 240.015 80.6023C239.151 80.194 238.486 79.4631 238.165 78.5699Z" fill="#E6E6E6"/>
<path d="M235.982 64.3306C230.039 58.3823 227.495 47.7733 225.837 35.9489C225.539 35.1118 225.589 34.1917 225.975 33.3906C226.361 32.5895 227.053 31.9728 227.898 31.6758L256.845 21.5374C257.691 21.2422 258.62 21.2912 259.429 21.6735C260.239 22.0559 260.862 22.7404 261.162 23.5769L275.204 62.8616C275.502 63.6988 275.453 64.6189 275.066 65.42C274.68 66.2211 273.989 66.8378 273.144 67.1348L255.212 73.4153C251.444 74.73 247.304 74.5119 243.699 72.8088C240.094 71.1056 237.319 68.0566 235.982 64.3306Z" fill="white"/>
<path d="M261.549 44.7397L239 52.7069C238.823 52.7697 238.634 52.7973 238.446 52.7879C238.258 52.7786 238.073 52.7327 237.902 52.6527C237.732 52.5728 237.579 52.4603 237.452 52.3219C237.326 52.1834 237.228 52.0216 237.165 51.8458C237.101 51.6699 237.073 51.4834 237.083 51.2969C237.092 51.1104 237.139 50.9275 237.219 50.7588C237.3 50.59 237.414 50.4387 237.554 50.3134C237.694 50.1881 237.857 50.0913 238.035 50.0285L260.583 42.0613C260.761 41.9985 260.95 41.971 261.138 41.9803C261.326 41.9896 261.511 42.0355 261.682 42.1155C261.852 42.1955 262.005 42.3079 262.132 42.4463C262.258 42.5848 262.356 42.7466 262.419 42.9225C262.483 43.0983 262.511 43.2848 262.501 43.4713C262.492 43.6579 262.445 43.8407 262.365 44.0094C262.284 44.1782 262.17 44.3295 262.03 44.4548C261.89 44.5801 261.727 44.6769 261.549 44.7397Z" fill="#80BCBD"/>
<path d="M241.313 43.6098L236.352 45.3626C235.993 45.489 235.599 45.4692 235.255 45.3076C234.911 45.146 234.646 44.8559 234.518 44.501C234.39 44.146 234.409 43.7553 234.572 43.4146C234.735 43.074 235.028 42.8112 235.386 42.6842L240.347 40.9314C240.706 40.8046 241.101 40.8241 241.445 40.9856C241.789 41.1471 242.055 41.4374 242.183 41.7926C242.311 42.1478 242.291 42.5388 242.128 42.8796C241.965 43.2204 241.672 43.483 241.313 43.6098Z" fill="#80BCBD"/>
<path d="M265.795 56.5151L243.247 64.4823C243.069 64.5451 242.881 64.5726 242.692 64.5633C242.504 64.554 242.319 64.5081 242.149 64.4281C241.978 64.3481 241.825 64.2357 241.699 64.0973C241.572 63.9588 241.474 63.797 241.411 63.6212C241.347 63.4453 241.32 63.2588 241.329 63.0723C241.338 62.8858 241.385 62.7029 241.466 62.5342C241.546 62.3654 241.66 62.2141 241.8 62.0888C241.94 61.9635 242.103 61.8667 242.281 61.8039L264.83 53.8367C265.007 53.7737 265.196 53.746 265.384 53.7551C265.573 53.7643 265.758 53.8102 265.928 53.8901C266.099 53.97 266.252 54.0825 266.379 54.221C266.506 54.3595 266.603 54.5214 266.667 54.6974C266.73 54.8734 266.758 55.06 266.749 55.2466C266.739 55.4332 266.693 55.6162 266.612 55.785C266.531 55.9538 266.417 56.1052 266.277 56.2305C266.137 56.3557 265.973 56.4525 265.795 56.5151Z" fill="#80BCBD"/>
<path d="M263.672 50.6274L241.124 58.5946C240.765 58.7214 240.37 58.7019 240.025 58.5404C239.681 58.3789 239.416 58.0886 239.288 57.7335C239.16 57.3783 239.179 56.9873 239.342 56.6465C239.506 56.3057 239.799 56.043 240.158 55.9162L262.707 47.949C263.065 47.8226 263.46 47.8424 263.804 48.004C264.148 48.1656 264.413 48.4557 264.541 48.8106C264.669 49.1656 264.649 49.5563 264.487 49.897C264.324 50.2376 264.031 50.5004 263.672 50.6274Z" fill="#80BCBD"/>
<path d="M224.3 39.1568C227.605 39.1568 230.285 36.5044 230.285 33.2325C230.285 29.9605 227.605 27.3081 224.3 27.3081C220.995 27.3081 218.315 29.9605 218.315 33.2325C218.315 36.5044 220.995 39.1568 224.3 39.1568Z" fill="#80BCBD"/>
<path d="M116.022 20.199H67.2845C67.1258 20.199 66.9736 20.1366 66.8613 20.0255C66.7491 19.9144 66.686 19.7637 66.686 19.6066C66.686 19.4495 66.7491 19.2988 66.8613 19.1877C66.9736 19.0766 67.1258 19.0142 67.2845 19.0142H116.022C116.181 19.0142 116.333 19.0766 116.445 19.1877C116.558 19.2988 116.621 19.4495 116.621 19.6066C116.621 19.7637 116.558 19.9144 116.445 20.0255C116.333 20.1366 116.181 20.199 116.022 20.199Z" fill="#3F3D56"/>
<path d="M4.25857 41.2133C8.49138 25.4844 16.5224 12.0515 29.5849 1.66008C30.0985 0.860101 30.9116 0.294424 31.8459 0.0871395C32.7803 -0.120144 33.7595 0.047897 34.5689 0.554399L64.7461 19.4876C65.5543 19.9959 66.1258 20.8008 66.3352 21.7257C66.5446 22.6505 66.3748 23.6199 65.8631 24.421L40.5367 63.9742C40.0232 64.7741 39.2101 65.3398 38.2757 65.5471C37.3414 65.7544 36.3622 65.5864 35.5528 65.0799L5.37557 46.1467C4.56739 45.6384 3.99592 44.8335 3.78651 43.9086C3.5771 42.9837 3.74687 42.0144 4.25857 41.2133Z" fill="#E6E6E6"/>
<path d="M14.223 30.719C15.2777 22.4183 22.1349 13.8848 30.5051 5.29063C30.986 4.54141 31.7476 4.01161 32.6226 3.81748C33.4976 3.62335 34.4148 3.78074 35.1727 4.25511L61.1075 20.5266C61.8644 21.0027 62.3997 21.7565 62.5958 22.6226C62.7919 23.4888 62.633 24.3967 62.1538 25.147L39.6167 60.3439C39.1358 61.0931 38.3742 61.6229 37.4992 61.817C36.6241 62.0111 35.707 61.8537 34.949 61.3793L18.8829 51.2995C15.5115 49.179 13.1275 45.8213 12.2539 41.963C11.3803 38.1048 12.0884 34.0611 14.223 30.719Z" fill="white"/>
<path d="M45.5798 38.5205L25.3219 25.8885C25 25.6873 24.7719 25.3678 24.6878 25.0003C24.6037 24.6327 24.6705 24.2471 24.8734 23.9282C25.0763 23.6093 25.3989 23.3832 25.7701 23.2996C26.1413 23.216 26.531 23.2817 26.8533 23.4822L47.1112 36.1142C47.271 36.2136 47.4095 36.3433 47.5187 36.4957C47.6278 36.6481 47.7056 36.8204 47.7475 37.0026C47.7894 37.1848 47.7946 37.3734 47.7628 37.5576C47.731 37.7418 47.6628 37.918 47.5622 38.0761C47.4616 38.2342 47.3305 38.3711 47.1764 38.479C47.0223 38.5869 46.8482 38.6637 46.6641 38.705C46.48 38.7463 46.2895 38.7512 46.1034 38.7196C45.9174 38.6879 45.7394 38.6203 45.5798 38.5205Z" fill="#80BCBD"/>
<path d="M33.9777 22.0695L29.521 19.2905C29.3612 19.191 29.2227 19.0614 29.1135 18.909C29.0043 18.7565 28.9266 18.5843 28.8847 18.4021C28.8428 18.2199 28.8376 18.0313 28.8694 17.8471C28.9012 17.6629 28.9693 17.4867 29.0699 17.3286C29.1706 17.1705 29.3017 17.0336 29.4558 16.9257C29.6099 16.8177 29.784 16.741 29.9681 16.6997C30.1522 16.6584 30.3427 16.6534 30.5288 16.6851C30.7148 16.7168 30.8927 16.7844 31.0523 16.8842L35.5091 19.6632C35.6689 19.7626 35.8074 19.8923 35.9165 20.0447C36.0257 20.1971 36.1035 20.3694 36.1454 20.5516C36.1873 20.7338 36.1925 20.9224 36.1607 21.1066C36.1289 21.2908 36.0607 21.467 35.9601 21.6251C35.8595 21.7832 35.7284 21.9201 35.5743 22.028C35.4202 22.1359 35.2461 22.2127 35.062 22.254C34.8779 22.2953 34.6873 22.3002 34.5013 22.2686C34.3152 22.2369 34.1373 22.1693 33.9777 22.0695Z" fill="#80BCBD"/>
<path d="M38.8475 49.0992L18.5896 36.4672C18.4298 36.3678 18.2913 36.2382 18.1821 36.0857C18.073 35.9333 17.9952 35.761 17.9533 35.5788C17.9114 35.3966 17.9062 35.208 17.938 35.0239C17.9698 34.8397 18.0379 34.6635 18.1386 34.5054C18.2392 34.3473 18.3703 34.2103 18.5244 34.1024C18.6785 33.9945 18.8526 33.9177 19.0367 33.8764C19.2208 33.8352 19.4113 33.8302 19.5974 33.8619C19.7834 33.8935 19.9613 33.9612 20.121 34.0609L40.3788 46.6929C40.7008 46.8941 40.9289 47.2136 41.013 47.5812C41.0971 47.9487 41.0303 48.3343 40.8274 48.6532C40.6245 48.9721 40.3019 49.1982 39.9307 49.2818C39.5594 49.3654 39.1698 49.2998 38.8475 49.0992Z" fill="#80BCBD"/>
<path d="M42.2137 43.8102L21.9558 31.1782C21.796 31.0787 21.6575 30.9491 21.5483 30.7967C21.4391 30.6442 21.3614 30.472 21.3195 30.2898C21.2776 30.1076 21.2724 29.919 21.3042 29.7348C21.336 29.5506 21.4041 29.3744 21.5047 29.2163C21.6054 29.0582 21.7365 28.9213 21.8906 28.8134C22.0447 28.7054 22.2188 28.6286 22.4029 28.5874C22.587 28.5461 22.7775 28.5411 22.9636 28.5728C23.1496 28.6045 23.3276 28.6721 23.4872 28.7719L43.7451 41.4039C44.0674 41.6049 44.2959 41.9244 44.3803 42.2922C44.4646 42.66 44.3979 43.0458 44.1949 43.3649C44.0943 43.5229 43.9633 43.6598 43.8093 43.7677C43.6554 43.8756 43.4814 43.9524 43.2975 43.9937C42.9259 44.0772 42.5361 44.0112 42.2137 43.8102Z" fill="#80BCBD"/>
<path d="M63.902 27.9005C67.2074 27.9005 69.887 25.248 69.887 21.9761C69.887 18.7042 67.2074 16.0518 63.902 16.0518C60.5966 16.0518 57.917 18.7042 57.917 21.9761C57.917 25.248 60.5966 27.9005 63.902 27.9005Z" fill="#80BCBD"/>
<path d="M192.579 110.841C195.885 110.841 198.564 108.189 198.564 104.917C198.564 101.645 195.885 98.9927 192.579 98.9927C189.274 98.9927 186.594 101.645 186.594 104.917C186.594 108.189 189.274 110.841 192.579 110.841Z" fill="#80BCBD"/>
<path d="M164.563 252.956C162.067 266.416 151.492 297.963 145.1 316.43C142.185 324.866 141.946 321.69 141.946 321.69L138.624 320.654L133.022 318.9L130.975 318.26L128.497 317.484C128.497 317.484 127.282 296.026 126.893 279.93C126.762 274.74 126.534 271.031 126.157 270.297C124.601 267.275 127.204 266.955 129.952 266.191C132.705 265.427 130.556 264.278 129.485 261.825C128.761 260.19 130.185 258.016 131.197 256.771C131.475 256.422 131.773 256.088 132.088 255.77C132.088 255.77 125.086 253.412 117.168 250.752C117.162 250.758 117.162 250.752 117.162 250.752C116.366 250.486 115.564 250.219 114.762 249.947C117.551 248.951 119.406 248.181 119.825 247.772C122.279 245.403 123.362 247.772 124.918 250.142C126.474 252.512 126.953 250.142 128.988 248.4C131.023 246.659 135.607 249.052 135.607 249.052C135.607 249.052 135.649 247.476 135.715 244.964C135.811 241.256 135.955 235.485 136.098 229.709C136.092 229.703 136.092 229.703 136.098 229.703C136.152 227.529 136.206 225.355 136.254 223.293C140.473 226.492 144.567 229.632 148.278 232.535C148.284 232.541 148.296 232.547 148.296 232.559C157.219 239.538 163.916 245.142 164.856 246.919C165.281 247.725 165.137 249.864 164.563 252.956Z" fill="#092635"/>
<path d="M106.994 202.669L104.791 204.085L99.1535 207.71L91.5047 212.622L50.7349 238.807C50.7349 238.807 45.6955 228.641 50.31 219.802C50.9038 218.684 51.3869 217.511 51.7523 216.301C53.6197 209.962 50.0287 207.213 50.0287 207.213C50.0287 207.213 44.0437 201.448 49.7833 196.134C50.9623 195.044 51.6207 192.811 51.9199 189.943C52.4227 185.227 51.9618 178.805 51.2616 172.97C50.3159 165.061 48.9394 158.236 48.9394 158.236C48.9222 153.492 49.4117 148.76 50.3997 144.118C51.495 139.118 53.2546 134.367 55.858 130.421C56.8128 128.957 57.9136 127.592 59.1438 126.345C60.8653 124.599 62.8803 123.161 65.0989 122.098C68.4265 120.51 74.1303 121.464 79.1577 122.157C80.1691 122.293 81.1507 122.423 82.0783 122.518C82.9983 122.624 83.9233 122.681 84.8494 122.69L86.9322 130.214L87.7222 133.064L88.1172 134.491L89.015 137.738L89.386 139.065L95.359 160.653L100.237 178.26L102.93 187.988L106.958 202.532L106.994 202.669Z" fill="#3F3D56"/>
<path d="M73.6263 117.509C83.66 117.509 91.7939 109.458 91.7939 99.526C91.7939 89.594 83.66 81.5425 73.6263 81.5425C63.5927 81.5425 55.4587 89.594 55.4587 99.526C55.4587 109.458 63.5927 117.509 73.6263 117.509Z" fill="#A0616A"/>
<path d="M70.2234 114.391L68.7435 119.075C65.4622 117.471 62.1367 115.839 59.4044 113.429C56.672 111.02 54.5588 107.694 54.4294 104.074C54.3626 102.205 54.82 100.319 54.5061 98.4737C54.1515 96.3892 52.8517 94.582 52.2567 92.5518C51.7001 90.4253 51.9096 88.1732 52.8492 86.1831C53.7888 84.193 55.3997 82.5892 57.4048 81.6478C60.4163 80.3377 63.86 80.7055 67.1339 80.3888C70.4078 80.0722 74.0599 78.6062 74.9813 75.4804C75.3259 74.3117 75.2864 72.9338 76.3411 72.1685C76.8711 71.8179 77.5135 71.6738 78.1445 71.7641C78.7754 71.8544 79.3503 72.1727 79.7583 72.6576C81.3001 74.3903 80.9206 76.672 80.5168 78.7465C82.6399 78.4721 84.6818 77.7616 86.5114 76.6605C88.341 75.5595 89.9179 74.0921 91.1412 72.3526C91.7156 72.885 92.1776 73.5248 92.5007 74.235C92.8237 74.9452 93.0013 75.7118 93.0232 76.4904C93.0452 77.269 92.9109 78.0441 92.6284 78.7711C92.3458 79.498 91.9204 80.1623 91.3769 80.7255C92.4093 80.7259 93.4117 80.382 94.2223 79.7492C95.0329 79.1164 95.6044 78.2317 95.8446 77.2378C97.0984 78.952 98.3852 80.7396 98.7883 82.8179C99.1914 84.8962 98.4432 87.3543 96.5177 88.274C95.5349 88.6584 94.4802 88.8294 93.4249 88.7753L85.3527 88.9271C82.9522 88.9722 80.6636 89.9399 78.9711 91.6255C77.2785 93.311 76.3148 95.5822 76.2836 97.9586C73.9352 97.7352 71.5164 97.5168 69.2956 98.4958C68.2612 98.9269 67.3894 99.6684 66.8031 100.616C65.3355 103.111 66.7916 105.705 68.0821 107.975C69.1852 109.915 70.231 112.252 69.3156 114.285" fill="#092635"/>
<path d="M153.157 296.986L119.475 285.189C118.573 284.872 117.835 284.213 117.422 283.358C117.01 282.503 116.957 281.52 117.275 280.626L133.056 236.48C133.376 235.586 134.041 234.855 134.905 234.447C135.77 234.039 136.762 233.987 137.665 234.302L171.347 246.099C172.249 246.416 172.988 247.074 173.4 247.93C173.813 248.785 173.865 249.767 173.547 250.661C173.36 267.248 167.649 281.798 157.767 294.808C157.446 295.701 156.781 296.432 155.917 296.841C155.053 297.249 154.06 297.301 153.157 296.986Z" fill="#E6E6E6"/>
<path d="M140.72 289.654L122.788 283.374C121.943 283.077 121.252 282.46 120.865 281.659C120.479 280.858 120.43 279.938 120.728 279.1L134.77 239.816C135.07 238.979 135.693 238.295 136.503 237.912C137.312 237.53 138.241 237.481 139.087 237.776L168.034 247.915C168.879 248.212 169.571 248.828 169.957 249.629C170.343 250.431 170.393 251.351 170.094 252.188C168.437 264.012 165.893 274.621 159.949 280.569C158.613 284.295 155.838 287.344 152.233 289.048C148.628 290.751 144.488 290.969 140.72 289.654Z" fill="white"/>
<path d="M133.513 259.161C133.641 258.806 133.906 258.516 134.251 258.355C134.595 258.193 134.99 258.174 135.348 258.3L157.897 266.267C158.075 266.33 158.239 266.427 158.379 266.552C158.519 266.677 158.633 266.829 158.714 266.997C158.794 267.166 158.841 267.349 158.85 267.536C158.86 267.722 158.832 267.909 158.769 268.085C158.705 268.261 158.607 268.423 158.481 268.561C158.354 268.7 158.201 268.812 158.03 268.892C157.86 268.972 157.675 269.018 157.486 269.027C157.298 269.036 157.109 269.009 156.931 268.946L134.383 260.979C134.024 260.851 133.731 260.589 133.568 260.248C133.405 259.907 133.385 259.516 133.513 259.161Z" fill="#80BCBD"/>
<path d="M153.749 258.031C153.878 257.676 154.143 257.386 154.487 257.225C154.831 257.064 155.226 257.044 155.585 257.17L160.546 258.923C160.723 258.986 160.887 259.083 161.027 259.208C161.167 259.333 161.28 259.485 161.361 259.653C161.442 259.822 161.488 260.005 161.498 260.191C161.507 260.378 161.479 260.564 161.416 260.74C161.352 260.916 161.255 261.078 161.128 261.216C161.001 261.355 160.849 261.467 160.678 261.547C160.508 261.627 160.323 261.673 160.134 261.682C159.946 261.692 159.758 261.664 159.58 261.601L154.619 259.849C154.261 259.721 153.968 259.459 153.805 259.118C153.641 258.777 153.622 258.387 153.749 258.031Z" fill="#80BCBD"/>
<path d="M129.266 270.936C129.395 270.581 129.66 270.291 130.005 270.13C130.349 269.968 130.744 269.949 131.102 270.075L153.651 278.042C153.829 278.105 153.993 278.202 154.133 278.327C154.273 278.452 154.387 278.603 154.467 278.772C154.548 278.941 154.595 279.124 154.604 279.311C154.614 279.497 154.586 279.684 154.523 279.86C154.459 280.036 154.361 280.198 154.235 280.336C154.108 280.475 153.955 280.587 153.784 280.667C153.614 280.747 153.429 280.793 153.24 280.802C153.052 280.811 152.863 280.784 152.685 280.721L130.136 272.753C129.778 272.626 129.485 272.364 129.322 272.023C129.159 271.682 129.139 271.291 129.266 270.936Z" fill="#80BCBD"/>
<path d="M131.39 265.049C131.518 264.694 131.783 264.404 132.128 264.243C132.472 264.081 132.867 264.061 133.225 264.188L155.774 272.155C155.952 272.218 156.116 272.314 156.256 272.44C156.396 272.565 156.51 272.716 156.591 272.885C156.671 273.054 156.718 273.237 156.727 273.424C156.737 273.61 156.709 273.797 156.646 273.973C156.582 274.149 156.484 274.311 156.358 274.449C156.231 274.588 156.078 274.7 155.907 274.78C155.737 274.86 155.552 274.906 155.363 274.915C155.175 274.924 154.986 274.896 154.808 274.833L132.26 266.866C131.901 266.739 131.608 266.476 131.445 266.136C131.282 265.795 131.262 265.404 131.39 265.049Z" fill="#80BCBD"/>
<path d="M142.947 234.944C142.516 233.489 141.528 232.257 140.193 231.512C138.859 230.767 137.283 230.566 135.802 230.954C135.502 231.037 135.209 231.145 134.927 231.276L105.156 204.636L98.6565 216.479L132.465 239.178C133.104 240.293 134.099 241.167 135.294 241.663C136.488 242.16 137.815 242.251 139.067 241.923C139.778 241.729 140.443 241.399 141.025 240.951C141.607 240.503 142.094 239.945 142.458 239.311C142.822 238.677 143.057 237.977 143.148 237.253C143.24 236.529 143.186 235.794 142.99 235.091C142.977 235.042 142.962 234.993 142.947 234.944Z" fill="#A0616A"/>
<path d="M120.736 216.117L119.574 217.539L112.74 225.934L111.818 227.071C111.818 227.071 102.056 220.436 91.5048 212.622C78.8405 203.232 65.0391 192.135 65.6556 188.752C66.7868 182.561 65.1888 187.733 61.1968 185.589C57.2108 183.438 62.0945 183.207 64.315 177.123C66.5414 171.045 64.0277 174.427 59.2097 172.65C55.9958 171.465 57.6776 144.284 59.1439 126.345C60.8654 124.599 62.8804 123.161 65.099 122.098C69.091 120.19 76.5184 121.949 82.0784 122.518C85.2265 145.487 89.7692 179.084 89.5657 180.144C89.2544 181.762 90.8704 184.99 93.42 188.474C94.617 190.121 100.788 196.383 106.958 202.532C113.841 209.393 120.736 216.117 120.736 216.117Z" fill="#3F3D56"/>
<path d="M267.476 131.56H204.109C203.929 131.56 203.751 131.525 203.585 131.458C203.419 131.39 203.268 131.29 203.141 131.165C203.013 131.039 202.912 130.89 202.844 130.725C202.775 130.561 202.739 130.385 202.739 130.207C202.739 130.029 202.775 129.853 202.844 129.689C202.912 129.525 203.013 129.375 203.141 129.25C203.268 129.124 203.419 129.024 203.585 128.957C203.751 128.889 203.929 128.854 204.109 128.854H267.476C267.838 128.855 268.185 128.998 268.44 129.252C268.696 129.505 268.839 129.849 268.839 130.207C268.839 130.565 268.696 130.909 268.44 131.163C268.185 131.416 267.838 131.559 267.476 131.56Z" fill="#80BCBD"/>
<path d="M299.553 143.927H204.109C203.929 143.927 203.751 143.892 203.585 143.824C203.419 143.757 203.268 143.657 203.141 143.531C203.013 143.406 202.912 143.256 202.844 143.092C202.775 142.928 202.739 142.752 202.739 142.574C202.739 142.396 202.775 142.22 202.844 142.056C202.912 141.891 203.013 141.742 203.141 141.616C203.268 141.491 203.419 141.391 203.585 141.323C203.751 141.256 203.929 141.221 204.109 141.221H299.553C299.915 141.222 300.262 141.365 300.518 141.618C300.773 141.872 300.917 142.216 300.917 142.574C300.917 142.932 300.773 143.276 300.518 143.529C300.262 143.783 299.915 143.926 299.553 143.927Z" fill="#F2F2F2"/>
<path d="M299.555 153.586H204.107C203.744 153.586 203.396 153.729 203.14 153.982C202.883 154.236 202.739 154.581 202.739 154.94C202.739 155.299 202.883 155.643 203.14 155.897C203.396 156.151 203.744 156.293 204.107 156.293H299.555C299.918 156.293 300.266 156.151 300.522 155.897C300.779 155.643 300.923 155.299 300.923 154.94C300.923 154.581 300.779 154.236 300.522 153.982C300.266 153.729 299.918 153.586 299.555 153.586Z" fill="#F2F2F2"/>
<path d="M299.553 168.659H204.109C203.929 168.66 203.751 168.625 203.585 168.557C203.419 168.489 203.268 168.39 203.141 168.264C203.013 168.139 202.912 167.989 202.844 167.825C202.775 167.661 202.739 167.485 202.739 167.307C202.739 167.129 202.775 166.953 202.844 166.788C202.912 166.624 203.013 166.475 203.141 166.349C203.268 166.224 203.419 166.124 203.585 166.056C203.751 165.988 203.929 165.954 204.109 165.954H299.553C299.915 165.955 300.262 166.098 300.518 166.351C300.773 166.605 300.917 166.949 300.917 167.307C300.917 167.665 300.773 168.009 300.518 168.262C300.262 168.516 299.915 168.659 299.553 168.659Z" fill="#F2F2F2"/>
</g>
<defs>
<clipPath id="clip0_79_1091">
<rect width="320" height="349" fill="white"/>
</clipPath>
</defs>
</svg>
