<svg width="320" height="284" viewBox="0 0 320 284" fill="none" xmlns="http://www.w3.org/2000/svg">
<g clip-path="url(#clip0_152_1761)">
<path d="M203.92 212.906V281.367H63.8345C47.8736 281.367 34.8877 266.011 34.8877 247.137C34.8877 228.262 47.8736 212.906 63.8345 212.906H203.92Z" fill="#F2F2F2"/>
<path d="M207.361 280.84C207.361 281.539 207.134 282.208 206.731 282.702C206.327 283.196 205.781 283.473 205.21 283.473H61.3393C53.5254 283.473 46.0316 279.673 40.5063 272.908C34.981 266.143 31.877 256.967 31.877 247.4C31.877 237.832 34.981 228.657 40.5063 221.892C46.0316 215.127 53.5254 211.326 61.3393 211.326H205.21C205.781 211.326 206.328 211.604 206.731 212.097C207.134 212.591 207.361 213.261 207.361 213.959C207.361 214.658 207.134 215.327 206.731 215.821C206.328 216.315 205.781 216.592 205.21 216.592H61.3393C54.6661 216.592 48.2663 219.838 43.5476 225.616C38.8289 231.393 36.178 239.229 36.178 247.4C36.178 255.57 38.8289 263.406 43.5476 269.184C48.2663 274.961 54.6661 278.207 61.3393 278.207H205.21C205.781 278.207 206.327 278.485 206.731 278.979C207.134 279.472 207.361 280.142 207.361 280.84Z" fill="#80BCBD"/>
<path d="M203.92 228.705H53.3825C53.2684 228.705 53.159 228.649 53.0784 228.55C52.9977 228.452 52.9524 228.318 52.9524 228.178C52.9524 228.038 52.9977 227.904 53.0784 227.806C53.159 227.707 53.2684 227.651 53.3825 227.651H203.92C204.034 227.651 204.144 227.707 204.224 227.806C204.305 227.904 204.35 228.038 204.35 228.178C204.35 228.318 204.305 228.452 204.224 228.55C204.144 228.649 204.034 228.705 203.92 228.705Z" fill="#CCCCCC"/>
<path d="M203.92 241.344H53.3825C53.2684 241.344 53.159 241.288 53.0784 241.19C52.9977 241.091 52.9524 240.957 52.9524 240.817C52.9524 240.677 52.9977 240.544 53.0784 240.445C53.159 240.346 53.2684 240.291 53.3825 240.291H203.92C204.034 240.291 204.144 240.346 204.224 240.445C204.305 240.544 204.35 240.677 204.35 240.817C204.35 240.957 204.305 241.091 204.224 241.19C204.144 241.288 204.034 241.344 203.92 241.344Z" fill="#CCCCCC"/>
<path d="M203.92 253.982H53.3825C53.2684 253.982 53.159 253.927 53.0784 253.828C52.9977 253.729 52.9524 253.595 52.9524 253.456C52.9524 253.316 52.9977 253.182 53.0784 253.083C53.159 252.985 53.2684 252.929 53.3825 252.929H203.92C204.034 252.929 204.144 252.985 204.224 253.083C204.305 253.182 204.35 253.316 204.35 253.456C204.35 253.595 204.305 253.729 204.224 253.828C204.144 253.927 204.034 253.982 203.92 253.982Z" fill="#CCCCCC"/>
<path d="M203.92 266.622H53.3825C53.2684 266.622 53.159 266.566 53.0784 266.467C52.9977 266.369 52.9524 266.235 52.9524 266.095C52.9524 265.955 52.9977 265.821 53.0784 265.723C53.159 265.624 53.2684 265.568 53.3825 265.568H203.92C204.034 265.568 204.144 265.624 204.224 265.723C204.305 265.821 204.35 265.955 204.35 266.095C204.35 266.235 204.305 266.369 204.224 266.467C204.144 266.566 204.034 266.622 203.92 266.622Z" fill="#CCCCCC"/>
<path d="M312.186 225.793L277.104 279.102L168.022 171.487C155.594 159.225 153.351 137.292 163.023 122.595C172.695 107.898 190.675 105.916 203.104 118.178L312.186 225.793Z" fill="#F2F2F2"/>
<path d="M280.053 281.335C279.695 281.879 279.176 282.226 278.609 282.301C278.042 282.375 277.474 282.171 277.029 281.733L165 171.21C158.915 165.207 155.028 156.491 154.192 146.978C153.356 137.466 155.641 127.937 160.543 120.487C165.446 113.037 172.565 108.277 180.334 107.253C188.103 106.23 195.886 109.028 201.97 115.03L314 225.554C314.22 225.771 314.403 226.038 314.539 226.342C314.674 226.646 314.759 226.979 314.79 227.323C314.82 227.667 314.795 228.014 314.715 228.346C314.636 228.678 314.503 228.988 314.326 229.257C314.149 229.527 313.93 229.75 313.682 229.916C313.434 230.082 313.162 230.186 312.881 230.223C312.6 230.26 312.316 230.229 312.045 230.131C311.774 230.034 311.521 229.872 311.301 229.654L199.272 119.131C196.699 116.591 193.743 114.696 190.572 113.555C187.401 112.414 184.077 112.049 180.791 112.481C177.505 112.913 174.321 114.134 171.42 116.073C168.519 118.012 165.959 120.632 163.885 123.783C161.811 126.934 160.265 130.555 159.334 134.438C158.404 138.321 158.107 142.39 158.461 146.414C158.815 150.437 159.813 154.336 161.398 157.887C162.983 161.438 165.124 164.572 167.698 167.109L279.728 277.633C280.172 278.071 280.455 278.707 280.516 279.401C280.577 280.096 280.411 280.791 280.053 281.335Z" fill="#CCCCCC"/>
<path d="M304.09 238.095L186.869 122.45C186.825 122.407 186.789 122.353 186.762 122.293C186.735 122.232 186.717 122.165 186.711 122.097C186.705 122.028 186.711 121.958 186.726 121.892C186.742 121.826 186.769 121.764 186.804 121.71C186.84 121.656 186.883 121.611 186.933 121.578C186.983 121.545 187.037 121.524 187.093 121.517C187.149 121.509 187.206 121.516 187.26 121.535C187.314 121.554 187.365 121.587 187.409 121.63L304.63 237.275C304.674 237.318 304.71 237.372 304.737 237.433C304.765 237.493 304.782 237.56 304.788 237.629C304.794 237.698 304.789 237.767 304.773 237.834C304.757 237.9 304.731 237.962 304.695 238.016C304.66 238.07 304.616 238.115 304.566 238.148C304.517 238.181 304.462 238.202 304.406 238.209C304.35 238.217 304.293 238.21 304.239 238.191C304.184 238.171 304.134 238.139 304.09 238.095Z" fill="#CCCCCC"/>
<path d="M297.613 247.937L180.393 132.292C180.304 132.204 180.247 132.077 180.235 131.938C180.223 131.799 180.256 131.66 180.328 131.552C180.399 131.443 180.503 131.374 180.617 131.359C180.73 131.344 180.843 131.384 180.932 131.472L298.153 247.116C298.197 247.16 298.234 247.213 298.261 247.274C298.288 247.335 298.305 247.401 298.311 247.47C298.317 247.539 298.312 247.609 298.296 247.675C298.28 247.742 298.254 247.803 298.218 247.857C298.183 247.911 298.139 247.956 298.09 247.989C298.04 248.022 297.985 248.043 297.929 248.051C297.873 248.058 297.816 248.052 297.762 248.032C297.708 248.013 297.657 247.98 297.613 247.937Z" fill="#CCCCCC"/>
<path d="M291.137 257.778L173.916 142.133C173.827 142.046 173.77 141.919 173.758 141.78C173.746 141.641 173.779 141.502 173.851 141.393C173.922 141.284 174.026 141.215 174.14 141.2C174.253 141.185 174.367 141.226 174.456 141.313L291.676 256.958C291.72 257.002 291.757 257.055 291.784 257.116C291.811 257.177 291.828 257.243 291.834 257.312C291.84 257.381 291.835 257.45 291.819 257.517C291.803 257.583 291.777 257.645 291.741 257.699C291.706 257.753 291.662 257.797 291.613 257.83C291.563 257.864 291.509 257.884 291.452 257.892C291.396 257.899 291.339 257.893 291.285 257.874C291.231 257.854 291.181 257.822 291.137 257.778Z" fill="#CCCCCC"/>
<path d="M284.66 267.62L167.439 151.975C167.395 151.932 167.359 151.878 167.332 151.818C167.305 151.757 167.288 151.69 167.282 151.622C167.275 151.553 167.281 151.483 167.296 151.417C167.312 151.351 167.339 151.289 167.374 151.235C167.41 151.181 167.453 151.136 167.503 151.103C167.553 151.07 167.607 151.049 167.663 151.042C167.719 151.034 167.776 151.04 167.83 151.06C167.885 151.079 167.935 151.112 167.979 151.155L285.2 266.8C285.244 266.843 285.28 266.897 285.308 266.958C285.335 267.018 285.352 267.085 285.358 267.154C285.364 267.223 285.359 267.292 285.343 267.359C285.327 267.425 285.301 267.487 285.265 267.541C285.23 267.595 285.186 267.64 285.136 267.673C285.087 267.706 285.032 267.727 284.976 267.734C284.92 267.741 284.863 267.735 284.809 267.716C284.755 267.696 284.704 267.664 284.66 267.62Z" fill="#CCCCCC"/>
<path d="M319.57 284H0.430108C0.316036 284 0.206636 283.945 0.125975 283.846C0.0453144 283.747 0 283.613 0 283.473C0 283.334 0.0453144 283.2 0.125975 283.101C0.206636 283.002 0.316036 282.947 0.430108 282.947H319.57C319.684 282.947 319.793 283.002 319.874 283.101C319.955 283.2 320 283.334 320 283.473C320 283.613 319.955 283.747 319.874 283.846C319.793 283.945 319.684 284 319.57 284Z" fill="#CCCCCC"/>
<path d="M145.411 205.71L140.494 205.71L138.156 182.488L145.413 182.489L145.411 205.71Z" fill="#FFB8B8"/>
<path d="M136.982 203.99H146.465V211.3H131.011C131.011 210.34 131.165 209.39 131.465 208.503C131.766 207.616 132.205 206.81 132.76 206.131C133.314 205.452 133.972 204.914 134.697 204.546C135.421 204.179 136.198 203.99 136.982 203.99Z" fill="#092635"/>
<path d="M95.1769 205.71L90.2599 205.71L87.9214 182.488L95.1786 182.489L95.1769 205.71Z" fill="#FFB8B8"/>
<path d="M86.7476 203.99H96.2305V211.3H80.7769C80.7769 210.34 80.9313 209.39 81.2314 208.503C81.5314 207.616 81.9712 206.81 82.5256 206.131C83.0801 205.452 83.7383 204.914 84.4627 204.546C85.1871 204.179 85.9635 203.99 86.7476 203.99Z" fill="#092635"/>
<path d="M111.6 33.458V30.8249C111.6 26.3206 113.062 22.0007 115.663 18.8157C118.264 15.6306 121.792 13.8413 125.471 13.8413C129.15 13.8413 132.678 15.6306 135.28 18.8157C137.881 22.0007 139.342 26.3206 139.342 30.8249V33.458C139.342 36.7053 138.289 39.8196 136.413 42.1158C134.538 44.412 131.994 45.702 129.342 45.702H121.6C120.287 45.702 118.987 45.3853 117.774 44.77C116.56 44.1547 115.458 43.2528 114.529 42.1158C113.601 40.9789 112.864 39.6291 112.362 38.1436C111.859 36.6581 111.6 35.0659 111.6 33.458Z" fill="#092635"/>
<path d="M125.471 46.608C131.306 46.608 136.035 40.8171 136.035 33.6736C136.035 26.5302 131.306 20.7393 125.471 20.7393C119.637 20.7393 114.907 26.5302 114.907 33.6736C114.907 40.8171 119.637 46.608 125.471 46.608Z" fill="#FFB8B8"/>
<path d="M68.0106 78.1275C68.4393 77.6319 68.9515 77.2573 69.5112 77.0303C70.0709 76.8033 70.6645 76.7293 71.2501 76.8135C71.8356 76.8977 72.399 77.1381 72.9005 77.5178C73.402 77.8974 73.8294 78.4071 74.1527 79.0109L83.2084 76.9135L85.5916 83.3407L72.7691 86.0827C71.9047 86.6803 70.8913 86.8688 69.9209 86.6127C68.9505 86.3566 68.0906 85.6735 67.504 84.6929C66.9175 83.7124 66.6451 82.5024 66.7384 81.2924C66.8318 80.0823 67.2844 78.9562 68.0106 78.1275Z" fill="#FFB8B8"/>
<path d="M117.354 54.9735L102.504 66.9512L77.4468 76.7481C77.1147 76.8788 76.8298 77.1464 76.6406 77.5053C76.4515 77.8642 76.3698 78.2923 76.4094 78.7167L76.9561 84.4815C76.9803 84.7366 77.0478 84.9827 77.1543 85.2041C77.2608 85.4254 77.4038 85.617 77.5743 85.7667C77.7448 85.9163 77.939 86.0207 78.1444 86.0731C78.3497 86.1256 78.5618 86.1249 78.7669 86.0711L102.35 79.8818C103.491 79.584 104.57 79.0023 105.52 78.1727L122.203 63.6395C122.808 63.1098 123.29 62.3975 123.604 61.5718C123.917 60.7461 124.051 59.8352 123.992 58.9276C123.93 58.0188 123.677 57.1451 123.256 56.3925C122.836 55.6399 122.262 55.0343 121.593 54.6354C120.923 54.2364 120.18 54.0578 119.437 54.1171C118.694 54.1764 117.976 54.4715 117.354 54.9735Z" fill="#CCCCCC"/>
<path d="M140.582 199.121C140.205 199.121 139.835 198.986 139.519 198.734C139.203 198.481 138.954 198.121 138.802 197.698L116.261 129.5C116.208 129.352 116.12 129.227 116.007 129.143C115.895 129.058 115.764 129.018 115.633 129.027C115.501 129.036 115.375 129.094 115.271 129.194C115.168 129.293 115.091 129.429 115.053 129.583L96.6619 195.976C96.5843 196.285 96.4558 196.572 96.2845 196.818C96.1132 197.064 95.9025 197.264 95.6656 197.407C95.4286 197.549 95.1704 197.631 94.9067 197.647C94.643 197.663 94.3794 197.612 94.1322 197.499L87.9651 194.667C87.6304 194.515 87.3367 194.252 87.1168 193.908C86.8968 193.563 86.7591 193.151 86.7191 192.716C83.9447 163.124 108.138 88.4296 108.383 87.6787L108.451 87.4707L130.506 93.4441L130.552 93.5053C139.351 105.258 146.583 179.388 147.944 194.129C147.994 194.661 147.895 195.199 147.663 195.653C147.431 196.108 147.079 196.452 146.666 196.629L141.222 198.986C141.017 199.075 140.8 199.121 140.582 199.121Z" fill="#092635"/>
<path d="M121.58 95.8485C116.236 95.8485 110.279 94.544 108.445 89.16L108.403 89.0363L108.46 88.9216C109.907 86.0139 111.82 81.0537 110.792 80.1226C108.767 78.2889 107.784 75.2724 107.871 71.1566C108.06 62.222 113.033 54.2895 120.243 51.4175C122.256 50.6288 124.305 49.9831 126.378 49.4836C127.89 49.1101 129.45 49.1512 130.948 49.6039C132.445 50.0566 133.841 50.9096 135.037 52.1018C136.248 53.3018 137.227 54.8152 137.904 56.5335C138.58 58.2517 138.937 60.1321 138.95 62.0395C139.025 71.5876 137.825 84.8861 131.676 94.0161C131.387 94.4397 130.986 94.7252 130.543 94.8225C127.585 95.4776 124.586 95.8209 121.58 95.8485Z" fill="#CCCCCC"/>
<path d="M119.592 95.4909C119.883 94.2137 120.573 93.1286 121.514 92.4714C122.455 91.8143 123.569 91.6382 124.615 91.9814C124.828 92.0545 125.037 92.1489 125.238 92.2638L132.114 84.6021L136.896 88.5466L127.063 99.2006C126.618 100.181 125.919 100.951 125.077 101.389C124.234 101.826 123.296 101.906 122.412 101.616C121.897 101.443 121.415 101.148 120.994 100.745C120.572 100.343 120.221 99.8431 119.958 99.2736C119.696 98.704 119.529 98.0764 119.466 97.4272C119.403 96.7779 119.446 96.1198 119.592 95.4909Z" fill="#FFB8B8"/>
<path d="M131.024 95.588C130.578 95.5883 130.146 95.3994 129.8 95.0534L127.089 92.3403C126.863 92.1141 126.682 91.8283 126.558 91.5042C126.435 91.18 126.374 90.8261 126.378 90.4687C126.383 90.1113 126.453 89.7598 126.585 89.4405C126.716 89.1212 126.904 88.8424 127.136 88.6249L138.509 77.9451C138.643 77.8179 138.732 77.6307 138.755 77.4242C138.777 77.2177 138.733 77.0085 138.63 76.842L131.611 65.4795C130.795 64.1638 130.386 62.5372 130.456 60.8877C130.526 59.2382 131.07 57.6721 131.993 56.4667C132.964 55.1822 134.294 54.3918 135.719 54.2522C137.145 54.1126 138.561 54.6342 139.686 55.7133L139.731 55.7706L147.061 68.6215C147.853 69.3824 148.491 70.3573 148.925 71.4702C149.359 72.5831 149.577 73.8037 149.562 75.0368C149.548 76.2699 149.3 77.482 148.839 78.5786C148.378 79.6751 147.717 80.6264 146.906 81.3581L132.176 95.1233C131.843 95.4251 131.439 95.588 131.024 95.588Z" fill="#CCCCCC"/>
<path d="M116.114 30.0347V23.6172L125.471 18.6143L134.394 23.6172V30.0347C134.394 30.314 134.303 30.5819 134.142 30.7794C133.98 30.9769 133.761 31.0879 133.533 31.0879H116.974C116.746 31.0879 116.527 30.9769 116.366 30.7794C116.205 30.5819 116.114 30.314 116.114 30.0347Z" fill="#092635"/>
<path d="M125.042 14.6926C123.666 9.30073 126.556 3.12144 130.827 0.987212C135.099 -1.14701 140.209 0.344875 143.814 3.87094C147.418 7.397 149.654 12.6784 150.839 18.1378C152.024 23.5971 152.249 29.2899 152.468 34.9325C157.716 36.1128 161.286 43.7346 159.468 49.8771C157.65 56.0197 150.921 59.0713 146.273 55.8608C141.626 52.6502 140.28 44.0199 143.634 38.9384C145.221 36.534 146.108 33.55 146.153 30.459C146.199 27.3681 145.401 24.3468 143.886 21.8738C142.371 19.4008 140.225 17.6173 137.789 16.806C135.352 15.9946 132.765 16.2017 130.435 17.3945C127.849 18.7189 124.603 15.2778 125.042 14.6926Z" fill="#092635"/>
<path d="M66.0707 53.2326C59.7871 53.1821 53.582 51.5181 47.8564 48.3482C47.5156 48.1622 47.2263 47.8589 47.0238 47.4752C46.8213 47.0914 46.7143 46.6438 46.7158 46.187V27.0085C46.7164 26.3802 46.9205 25.7778 47.2834 25.3335C47.6462 24.8893 48.1382 24.6394 48.6513 24.6387H83.49C84.0032 24.6394 84.4951 24.8893 84.858 25.3336C85.2208 25.7778 85.4249 26.3802 85.4255 27.0085V46.187C85.4271 46.6439 85.3201 47.0914 85.1176 47.4752C84.9151 47.8589 84.6258 48.1623 84.2849 48.3483C78.5593 51.5182 72.3543 53.1821 66.0707 53.2326Z" fill="#80BCBD"/>
<path d="M66.0658 37.6957C65.8075 37.696 65.5518 37.633 65.3137 37.5106L37.687 23.2393C37.3307 23.0553 37.0277 22.7448 36.8168 22.3479C36.606 21.951 36.4971 21.4859 36.5042 21.0126C36.5113 20.5392 36.6341 20.0793 36.8566 19.6922C37.0792 19.305 37.3913 19.0083 37.7529 18.8404L65.3799 6.00783C65.8248 5.80019 66.3168 5.80147 66.7611 6.01143L94.0179 18.844C94.3774 19.0133 94.6874 19.31 94.9084 19.6962C95.1294 20.0825 95.2512 20.5406 95.2583 21.0121C95.2654 21.4836 95.1575 21.947 94.9483 22.343C94.7392 22.7389 94.4383 23.0495 94.0841 23.2349L66.827 37.5059C66.5863 37.6314 66.3274 37.696 66.0658 37.6957Z" fill="#80BCBD"/>
<path d="M49.9415 49.653C51.3667 49.653 52.5221 48.2383 52.5221 46.4932C52.5221 44.7482 51.3667 43.3335 49.9415 43.3335C48.5162 43.3335 47.3608 44.7482 47.3608 46.4932C47.3608 48.2383 48.5162 49.653 49.9415 49.653Z" fill="#3F3D56"/>
<path opacity="0.2" d="M94.1785 21.2093L66.9213 35.4803C66.7088 35.5916 66.4801 35.6493 66.249 35.6499C66.0179 35.6506 65.7891 35.5943 65.5761 35.4843L37.9495 21.2135C37.6025 21.0385 37.3131 20.727 37.1269 20.3282C37.005 20.5868 36.9296 20.8742 36.9054 21.1713C36.8813 21.4684 36.909 21.7684 36.9868 22.0513C37.0646 22.3343 37.1907 22.5937 37.3567 22.8125C37.5227 23.0312 37.7247 23.2042 37.9495 23.3199L65.5761 37.5908C65.7891 37.7008 66.0179 37.7571 66.249 37.7564C66.4801 37.7557 66.7088 37.6981 66.9213 37.5868L94.1785 23.3158C94.4021 23.199 94.603 23.0254 94.7678 22.8066C94.9326 22.5878 95.0576 22.3287 95.1347 22.0463C95.2117 21.764 95.2389 21.4648 95.2145 21.1687C95.1902 20.8725 95.1148 20.586 94.9933 20.3281C94.8085 20.7238 94.522 21.0335 94.1785 21.2093Z" fill="black"/>
<path d="M50.1584 46.481C50.2725 46.481 50.3819 46.4255 50.4625 46.3267C50.5432 46.228 50.5885 46.094 50.5885 45.9544V28.3328L64.774 22.0054C64.888 22.0075 64.9981 21.954 65.08 21.8567C65.1618 21.7594 65.2088 21.6263 65.2105 21.4866C65.2122 21.3469 65.1685 21.2122 65.089 21.1119C65.0096 21.0117 64.9008 20.9542 64.7868 20.9521L50.6013 27.2796C50.4871 27.2764 50.3737 27.3016 50.2677 27.3536C50.1617 27.4057 50.0655 27.4836 49.9848 27.5825C49.9033 27.6802 49.8386 27.797 49.7945 27.9259C49.7504 28.0547 49.7279 28.1931 49.7283 28.3328V45.9544C49.7283 46.094 49.7736 46.228 49.8543 46.3267C49.9349 46.4255 50.0443 46.481 50.1584 46.481Z" fill="#3F3D56"/>
</g>
<defs>
<clipPath id="clip0_152_1761">
<rect width="320" height="284" fill="white"/>
</clipPath>
</defs>
</svg>
