<svg width="320" height="270" viewBox="0 0 320 270" fill="none" xmlns="http://www.w3.org/2000/svg">
<g clip-path="url(#clip0_79_1138)">
<path d="M116.443 204.806C115.475 202.373 115.368 199.658 116.143 197.15C116.919 194.642 118.524 192.507 120.67 191.131C121.385 190.676 120.731 189.496 120.013 189.954C117.552 191.494 115.715 193.926 114.85 196.79C113.985 199.654 114.152 202.751 115.32 205.494C115.648 206.299 116.769 205.605 116.443 204.806Z" fill="#092635"/>
<path d="M116.816 206.64C115.061 203.382 115.474 199.483 116.105 195.959C116.764 192.281 117.628 188.546 116.881 184.805C116.542 182.989 115.739 181.302 114.558 179.926C113.99 179.279 113.071 180.245 113.638 180.89C115.846 183.402 116.102 187.047 115.744 190.284C115.321 194.101 114.124 197.821 114.273 201.7C114.312 203.668 114.798 205.598 115.692 207.329C115.782 207.478 115.924 207.585 116.088 207.627C116.252 207.669 116.426 207.643 116.571 207.553C116.717 207.464 116.824 207.319 116.87 207.149C116.915 206.978 116.896 206.796 116.816 206.64Z" fill="#092635"/>
<path d="M126.236 217.045H104.112C103.595 217.045 103.099 216.829 102.733 216.446C102.367 216.062 102.161 215.542 102.16 215V208.191C102.162 206.441 102.826 204.763 104.007 203.526C105.188 202.289 106.789 201.593 108.459 201.591H111.704C111.876 201.591 112.042 201.519 112.164 201.391C112.286 201.263 112.354 201.09 112.355 200.909V197.727C112.355 197.426 112.469 197.137 112.673 196.924C112.876 196.711 113.151 196.591 113.439 196.591H116.909C117.197 196.591 117.473 196.711 117.676 196.924C117.879 197.137 117.994 197.426 117.994 197.727V200.909C117.994 201.09 118.063 201.263 118.185 201.391C118.307 201.519 118.472 201.591 118.645 201.591H121.89C123.559 201.593 125.16 202.289 126.341 203.526C127.522 204.763 128.186 206.441 128.188 208.191V215C128.188 215.542 127.982 216.062 127.616 216.446C127.25 216.829 126.754 217.045 126.236 217.045Z" fill="#CCCCCC"/>
<path d="M115.514 176.154C115.98 178.745 115.403 181.033 114.226 181.265C113.049 181.498 111.717 179.586 111.251 176.996C110.785 174.406 112.218 170.098 112.218 170.098C112.218 170.098 115.048 173.564 115.514 176.154Z" fill="#80BCBD"/>
<path d="M124.448 188.205C122.973 190.34 120.99 191.475 120.02 190.739C119.049 190.003 119.459 187.675 120.934 185.54C122.409 183.405 126.379 181.534 126.379 181.534C126.379 181.534 125.923 186.07 124.448 188.205Z" fill="#80BCBD"/>
<path d="M75.6661 41.17C74.6973 38.7371 74.5909 36.0214 75.366 33.5135C76.1412 31.0055 77.7468 28.8708 79.8928 27.4949C80.6074 27.0396 79.9541 25.8599 79.2359 26.3175C76.7744 27.8575 74.9373 30.2898 74.0723 33.1538C73.2074 36.0178 73.3746 39.1148 74.5424 41.8582C74.8707 42.6627 75.9922 41.9688 75.6661 41.17Z" fill="#092635"/>
<path d="M76.0385 43.004C74.2833 39.7457 74.6963 35.8463 75.3277 32.3227C75.9867 28.6444 76.8507 24.9097 76.1032 21.1686C75.7642 19.3523 74.9617 17.6662 73.7811 16.2897C73.2125 15.6427 72.294 16.6089 72.8608 17.2539C75.0683 19.7662 75.3243 23.4106 74.9662 26.6473C74.5439 30.4648 73.347 34.1849 73.4956 38.0641C73.5345 40.0318 74.021 41.9613 74.9148 43.6923C75.005 43.8419 75.147 43.949 75.3111 43.9909C75.4751 44.0329 75.6483 44.0064 75.7941 43.9171C75.9398 43.8278 76.0468 43.6827 76.0924 43.5124C76.1381 43.342 76.1187 43.1597 76.0385 43.004Z" fill="#092635"/>
<path d="M85.4588 53.4091H63.3349C62.8174 53.4085 62.3212 53.1928 61.9552 52.8094C61.5892 52.4259 61.3834 51.906 61.3828 51.3637V44.5544C61.3847 42.8046 62.049 41.1271 63.2298 39.8898C64.4106 38.6526 66.0115 37.9566 67.6815 37.9546H70.9264C71.099 37.9544 71.2643 37.8825 71.3863 37.7547C71.5083 37.6268 71.5769 37.4535 71.5771 37.2728V34.091C71.5775 33.7897 71.6918 33.5008 71.8951 33.2878C72.0984 33.0748 72.3741 32.9549 72.6616 32.9546H76.132C76.4196 32.9549 76.6952 33.0748 76.8985 33.2878C77.1019 33.5008 77.2162 33.7897 77.2165 34.091V37.2728C77.2167 37.4535 77.2853 37.6268 77.4073 37.7547C77.5293 37.8825 77.6947 37.9544 77.8672 37.9546H81.1122C82.7821 37.9566 84.3831 38.6526 85.5639 39.8898C86.7447 41.1271 87.4089 42.8046 87.4109 44.5544V51.3637C87.4103 51.906 87.2044 52.4259 86.8385 52.8094C86.4725 53.1928 85.9763 53.4085 85.4588 53.4091Z" fill="#CCCCCC"/>
<path d="M74.737 12.518C75.2028 15.1083 74.6261 17.3966 73.4489 17.629C72.2717 17.8615 70.9398 15.95 70.474 13.3597C70.0082 10.7694 71.4408 6.46191 71.4408 6.46191C71.4408 6.46191 74.2712 9.9277 74.737 12.518Z" fill="#80BCBD"/>
<path d="M83.6704 24.569C82.1953 26.7042 80.2129 27.8384 79.2425 27.1024C78.2721 26.3664 78.6813 24.0388 80.1564 21.9037C81.6315 19.7685 85.6018 17.8975 85.6018 17.8975C85.6018 17.8975 85.1455 22.4338 83.6704 24.569Z" fill="#80BCBD"/>
<path d="M31.6674 123.636H13.8816V130.454H31.6674V123.636Z" fill="#80BCBD"/>
<path d="M31.6674 145.909H13.8816V152.727H31.6674V145.909Z" fill="#80BCBD"/>
<path d="M140.118 269.545H7.37462C5.41942 269.543 3.54493 268.728 2.1624 267.28C0.779865 265.831 0.00219188 263.867 0 261.818V7.72727C0.00219188 5.67858 0.779865 3.71445 2.1624 2.26581C3.54493 0.817158 5.41942 0.0022967 7.37462 0H140.118C142.073 0.0023063 143.947 0.817167 145.33 2.26581C146.712 3.71446 147.49 5.67858 147.492 7.72727V261.818C147.49 263.867 146.712 265.831 145.33 267.28C143.947 268.728 142.073 269.543 140.118 269.545ZM7.37462 0.909091C5.64945 0.911136 3.9955 1.63013 2.77562 2.90835C1.55574 4.18656 0.869554 5.91961 0.867602 7.72727V261.818C0.869554 263.626 1.55574 265.359 2.77562 266.637C3.9955 267.915 5.64945 268.634 7.37462 268.636H140.118C141.843 268.634 143.497 267.915 144.717 266.637C145.937 265.359 146.623 263.626 146.625 261.818V7.72727C146.623 5.91961 145.937 4.18656 144.717 2.90835C143.497 1.63013 141.843 0.911136 140.118 0.909091H7.37462Z" fill="#092635"/>
<path d="M147.059 52.4785H0.433838V53.3876H147.059V52.4785Z" fill="#092635"/>
<path d="M147.059 107.039H0.433838V107.948H147.059V107.039Z" fill="#092635"/>
<path d="M147.059 161.598H0.433838V162.507H147.059V161.598Z" fill="#092635"/>
<path d="M147.059 216.158H0.433838V217.067H147.059V216.158Z" fill="#092635"/>
<path d="M30.366 162.727H15.6168C15.0417 162.726 14.4904 162.487 14.0838 162.061C13.6772 161.635 13.4484 161.057 13.4478 160.454V116.364C13.4484 115.761 13.6772 115.183 14.0838 114.757C14.4904 114.331 15.0417 114.092 15.6168 114.091H30.366C30.941 114.092 31.4923 114.331 31.899 114.757C32.3056 115.183 32.5343 115.761 32.535 116.364V160.454C32.5343 161.057 32.3056 161.635 31.899 162.061C31.4923 162.487 30.941 162.726 30.366 162.727ZM15.6168 115C15.2717 115 14.9409 115.144 14.697 115.4C14.453 115.655 14.3157 116.002 14.3154 116.364V160.454C14.3157 160.816 14.453 161.163 14.697 161.418C14.9409 161.674 15.2717 161.818 15.6168 161.818H30.366C30.711 161.818 31.0418 161.674 31.2858 161.418C31.5298 161.163 31.667 160.816 31.6674 160.454V116.364C31.667 116.002 31.5298 115.655 31.2858 115.4C31.0418 115.144 30.711 115 30.366 115H15.6168Z" fill="#092635"/>
<path d="M58.997 123.636H41.2112V130.454H58.997V123.636Z" fill="#80BCBD"/>
<path d="M58.997 145.909H41.2112V152.727H58.997V145.909Z" fill="#80BCBD"/>
<path d="M57.6956 162.727H42.9463C42.3713 162.726 41.82 162.487 41.4134 162.061C41.0067 161.635 40.778 161.057 40.7773 160.454V116.364C40.778 115.761 41.0067 115.183 41.4134 114.757C41.82 114.331 42.3713 114.092 42.9463 114.091H57.6956C58.2706 114.092 58.8219 114.331 59.2286 114.757C59.6352 115.183 59.8639 115.761 59.8646 116.364V160.454C59.8639 161.057 59.6352 161.635 59.2286 162.061C58.8219 162.487 58.2706 162.726 57.6956 162.727ZM42.9463 115C42.6013 115 42.2705 115.144 42.0265 115.4C41.7826 115.655 41.6453 116.002 41.6449 116.364V160.454C41.6453 160.816 41.7826 161.163 42.0265 161.418C42.2705 161.674 42.6013 161.818 42.9463 161.818H57.6956C58.0406 161.818 58.3714 161.674 58.6154 161.418C58.8594 161.163 58.9966 160.816 58.997 160.454V116.364C58.9966 116.002 58.8594 115.655 58.6154 115.4C58.3714 115.144 58.0406 115 57.6956 115H42.9463Z" fill="#092635"/>
<path d="M102.377 68.6362H84.5911V75.4544H102.377V68.6362Z" fill="#80BCBD"/>
<path d="M102.377 90.9092H84.5911V97.7274H102.377V90.9092Z" fill="#80BCBD"/>
<path d="M101.076 107.727H86.3265C85.7514 107.726 85.2001 107.487 84.7935 107.061C84.3869 106.635 84.1581 106.057 84.1575 105.454V61.3635C84.1581 60.761 84.3869 60.1833 84.7935 59.7573C85.2001 59.3312 85.7514 59.0915 86.3265 59.0908H101.076C101.651 59.0915 102.202 59.3312 102.609 59.7573C103.015 60.1833 103.244 60.761 103.245 61.3635V105.454C103.244 106.057 103.015 106.635 102.609 107.061C102.202 107.487 101.651 107.726 101.076 107.727ZM86.3265 59.9999C85.9814 60.0003 85.6507 60.1441 85.4067 60.3998C85.1627 60.6554 85.0255 61.002 85.0251 61.3635V105.454C85.0255 105.816 85.1627 106.163 85.4067 106.418C85.6507 106.674 85.9814 106.818 86.3265 106.818H101.076C101.421 106.818 101.752 106.674 101.996 106.418C102.239 106.163 102.377 105.816 102.377 105.454V61.3635C102.377 61.002 102.239 60.6554 101.996 60.3997C101.752 60.1441 101.421 60.0003 101.076 59.9999H86.3265Z" fill="#092635"/>
<path d="M129.706 68.6362H111.921V75.4544H129.706V68.6362Z" fill="#80BCBD"/>
<path d="M129.706 90.9092H111.921V97.7274H129.706V90.9092Z" fill="#80BCBD"/>
<path d="M128.405 107.727H113.656C113.081 107.726 112.529 107.487 112.123 107.061C111.716 106.635 111.487 106.057 111.487 105.454V61.3635C111.487 60.761 111.716 60.1833 112.123 59.7573C112.529 59.3312 113.081 59.0915 113.656 59.0908H128.405C128.98 59.0915 129.531 59.3312 129.938 59.7573C130.345 60.1833 130.573 60.761 130.574 61.3635V105.454C130.573 106.057 130.345 106.635 129.938 107.061C129.531 107.487 128.98 107.726 128.405 107.727ZM113.656 59.9999C113.311 60.0003 112.98 60.1441 112.736 60.3997C112.492 60.6554 112.355 61.002 112.354 61.3635V105.454C112.355 105.816 112.492 106.163 112.736 106.418C112.98 106.674 113.311 106.818 113.656 106.818H128.405C128.75 106.818 129.081 106.674 129.325 106.418C129.569 106.163 129.706 105.816 129.706 105.454V61.3635C129.706 61.002 129.569 60.6554 129.325 60.3997C129.081 60.1441 128.75 60.0003 128.405 59.9999H113.656Z" fill="#092635"/>
<path d="M80.8128 119.565L64.1636 126.12L66.4524 132.503L83.1016 125.947L80.8128 119.565Z" fill="#80BCBD"/>
<path d="M88.2896 140.414L71.6404 146.969L73.9293 153.352L90.5784 146.796L88.2896 140.414Z" fill="#80BCBD"/>
<path d="M78.1465 162.219C77.7054 162.218 77.275 162.077 76.9125 161.813C76.55 161.55 76.2726 161.177 76.1172 160.745L61.3158 119.472C61.1142 118.907 61.1344 118.282 61.372 117.734C61.6096 117.185 62.0452 116.757 62.5832 116.545L76.3899 111.109C76.6566 111.004 76.9403 110.955 77.225 110.965C77.5097 110.975 77.7898 111.043 78.0492 111.166C78.3086 111.29 78.5422 111.465 78.7368 111.683C78.9314 111.901 79.0831 112.157 79.1833 112.437L93.9846 153.71C94.1862 154.274 94.166 154.899 93.9284 155.448C93.6909 155.997 93.2553 156.424 92.7173 156.637L78.9105 162.073C78.6663 162.17 78.4075 162.219 78.1465 162.219ZM77.1536 111.872C76.997 111.872 76.8417 111.902 76.6951 111.96L62.8885 117.396C62.5656 117.523 62.3043 117.78 62.1617 118.109C62.0191 118.438 62.007 118.813 62.128 119.152L76.9294 160.425C76.9895 160.593 77.0805 160.746 77.1973 160.877C77.314 161.008 77.4542 161.113 77.6099 161.187C77.7655 161.261 77.9335 161.302 78.1043 161.308C78.2751 161.314 78.4454 161.285 78.6054 161.222L92.412 155.786C92.7348 155.658 92.9962 155.402 93.1388 155.072C93.2813 154.743 93.2935 154.368 93.1725 154.03L78.3711 112.756C78.2778 112.497 78.1114 112.273 77.8939 112.115C77.6765 111.957 77.4183 111.872 77.1536 111.872Z" fill="#092635"/>
<path d="M20.9483 65.4734L4.29907 72.0288L6.58795 78.4113L23.2371 71.8558L20.9483 65.4734Z" fill="#80BCBD"/>
<path d="M28.4251 86.323L11.7759 92.8784L14.0648 99.2609L30.7139 92.7054L28.4251 86.323Z" fill="#80BCBD"/>
<path d="M18.282 108.129C17.8409 108.128 17.4105 107.986 17.048 107.723C16.6855 107.459 16.4081 107.086 16.2527 106.654L1.45131 65.3808C1.24972 64.8166 1.26993 64.1916 1.50752 63.6429C1.7451 63.0942 2.18066 62.6667 2.71867 62.454L16.5254 57.0179C16.7921 56.9129 17.0758 56.8639 17.3605 56.8738C17.6452 56.8837 17.9253 56.9523 18.1847 57.0756C18.4441 57.199 18.6777 57.3746 18.8723 57.5926C19.0669 57.8106 19.2186 58.0666 19.3188 58.346L34.1201 99.6191C34.3217 100.183 34.3015 100.808 34.0639 101.357C33.8264 101.906 33.3908 102.333 32.8528 102.546L19.046 107.982C18.8018 108.079 18.543 108.128 18.282 108.129ZM17.2891 57.781C17.1325 57.7812 16.9772 57.8109 16.8306 57.8689L3.02395 63.305C2.70111 63.4326 2.43975 63.6891 2.29718 64.0184C2.15462 64.3476 2.1425 64.7226 2.26347 65.0612L17.0649 106.334C17.125 106.502 17.216 106.656 17.3328 106.786C17.4495 106.917 17.5897 107.022 17.7453 107.096C17.901 107.17 18.069 107.212 18.2398 107.218C18.4106 107.223 18.5809 107.194 18.7409 107.131L32.5475 101.695C32.8703 101.567 33.1317 101.311 33.2743 100.982C33.4168 100.652 33.429 100.277 33.308 99.9387L18.5066 58.6656C18.4133 58.4061 18.2469 58.1825 18.0294 58.0245C17.812 57.8665 17.5538 57.7815 17.2891 57.781Z" fill="#092635"/>
<path d="M271.993 113.636C279.42 113.636 285.441 107.328 285.441 99.5455C285.441 91.7633 279.42 85.4546 271.993 85.4546C264.566 85.4546 258.545 91.7633 258.545 99.5455C258.545 107.328 264.566 113.636 271.993 113.636Z" fill="#2F2E41"/>
<path d="M212.25 163.85C212.885 164.108 213.567 164.217 214.247 164.169C214.926 164.121 215.588 163.918 216.184 163.573C216.781 163.228 217.298 162.75 217.699 162.173C218.101 161.597 218.377 160.935 218.507 160.234L255.483 135.789L248.753 127.85L214.507 154.391C213.37 154.239 212.218 154.529 211.271 155.207C210.324 155.886 209.647 156.904 209.369 158.07C209.091 159.236 209.23 160.469 209.761 161.534C210.292 162.599 211.178 163.423 212.25 163.85Z" fill="#FFB8B8"/>
<path d="M247.764 142.288C247.436 142.289 247.114 142.203 246.827 142.039C246.539 141.875 246.296 141.638 246.118 141.35L241.836 134.378C241.566 133.938 241.467 133.406 241.56 132.892C241.652 132.377 241.93 131.92 242.334 131.613L256.663 120.762C257.358 120.235 258.147 119.86 258.983 119.659C259.819 119.457 260.685 119.434 261.53 119.589C262.375 119.744 263.182 120.076 263.902 120.564C264.623 121.051 265.243 121.686 265.725 122.429C266.208 123.172 266.543 124.009 266.712 124.891C266.88 125.772 266.878 126.68 266.706 127.561C266.533 128.441 266.194 129.277 265.708 130.017C265.222 130.758 264.6 131.389 263.877 131.874L248.811 141.967C248.499 142.177 248.135 142.288 247.764 142.288Z" fill="#2F2E41"/>
<path d="M254.161 264.023L248.843 264.022L246.313 242.528L254.163 242.528L254.161 264.023Z" fill="#FFB8B8"/>
<path d="M245.044 262.43H255.301V269.197H238.586C238.586 268.308 238.753 267.428 239.078 266.607C239.403 265.786 239.878 265.04 240.478 264.412C241.078 263.784 241.789 263.285 242.573 262.945C243.357 262.605 244.196 262.43 245.044 262.43Z" fill="#2F2E41"/>
<path d="M278.99 259.856L273.869 261.363L265.888 241.385L273.445 239.162L278.99 259.856Z" fill="#FFB8B8"/>
<path d="M269.801 260.906L279.676 258.001L281.421 264.516L265.329 269.249C265.1 268.394 265.034 267.499 265.134 266.617C265.235 265.735 265.501 264.882 265.916 264.107C266.331 263.332 266.888 262.651 267.555 262.101C268.221 261.552 268.985 261.146 269.801 260.906Z" fill="#2F2E41"/>
<path d="M293.319 226.87L272.672 201.338L285.2 185.408C285.384 185.175 285.615 184.987 285.877 184.858C286.138 184.729 286.423 184.663 286.712 184.664C287.001 184.665 287.286 184.733 287.547 184.863C287.808 184.994 288.038 185.183 288.22 185.418L307.178 209.797L293.319 226.87Z" fill="#80BCBD"/>
<path d="M273.505 201.528C273.809 200.954 274.186 200.426 274.627 199.958L286.585 187.255C287.054 186.754 287.685 186.457 288.353 186.423C289.72 186.355 291.961 186.5 292.585 188.071L276.44 201.912L273.505 201.528Z" fill="#F2F2F2"/>
<path d="M294.036 232.272C293.115 232.243 292.22 231.946 291.452 231.415L291.395 231.353L272.485 201.049L275.622 200.731L292.439 186.986C292.652 186.813 292.896 186.687 293.157 186.617C293.418 186.548 293.69 186.535 293.955 186.581C294.221 186.626 294.475 186.729 294.701 186.882C294.927 187.035 295.12 187.236 295.269 187.471L313.652 216.625C313.934 217.075 314.036 217.624 313.935 218.152C313.835 218.68 313.54 219.146 313.115 219.448L295.326 232.016C294.916 232.187 294.478 232.274 294.036 232.272Z" fill="#80BCBD"/>
<path d="M287.348 211.542C287.17 211.543 286.995 211.497 286.838 211.41C286.681 211.322 286.547 211.196 286.447 211.041L284.275 207.66C284.114 207.41 284.055 207.103 284.11 206.808C284.166 206.512 284.33 206.251 284.569 206.082L295.714 198.221C295.952 198.053 296.245 197.991 296.527 198.049C296.809 198.107 297.058 198.279 297.219 198.529L299.391 201.91C299.552 202.16 299.611 202.467 299.555 202.762C299.5 203.058 299.336 203.319 299.097 203.487L287.952 211.349C287.774 211.475 287.564 211.542 287.348 211.542Z" fill="#092635"/>
<path d="M245.472 260.772C244.878 260.77 244.307 260.535 243.871 260.114C243.434 259.694 243.164 259.117 243.112 258.498C242.166 247.232 237.418 190.452 236.897 178.985C236.318 166.245 246.437 146.089 246.539 145.888L246.609 145.749L251.611 146.404V147.013L256.372 147.6L265.585 148.534L268.223 182.316L269.389 205.226L280.346 252.018C280.471 252.536 280.395 253.085 280.137 253.545C279.878 254.006 279.457 254.341 278.964 254.479L269.428 257.204C268.932 257.343 268.404 257.274 267.957 257.009C267.51 256.745 267.179 256.307 267.037 255.791L258.058 222.742C258.014 222.582 257.917 222.444 257.783 222.355C257.649 222.265 257.489 222.23 257.332 222.255C257.175 222.281 257.033 222.365 256.932 222.493C256.83 222.621 256.777 222.784 256.782 222.95L257.731 255.175C257.736 255.506 257.676 255.834 257.556 256.14C257.435 256.446 257.256 256.723 257.03 256.953C254.844 259.104 249.068 260.253 245.82 260.746C245.705 260.763 245.588 260.772 245.472 260.772Z" fill="#2F2E41"/>
<path d="M274.127 118.815C272.614 117.162 262.643 119.434 260.429 121.869L245.274 147.826L270.338 152.712L275.876 119.731L274.127 118.815Z" fill="#80BCBD"/>
<path d="M267.557 184.763C267.017 184.764 266.481 184.67 265.971 184.486C264.515 183.963 262.73 183.415 260.666 182.859C251.629 180.424 248.438 172.628 251.182 159.687L251.252 159.358C253.829 147.082 258.687 135.458 265.549 125.148L266.611 123.548C267.894 121.618 269.69 120.125 271.776 119.256C273.862 118.387 276.146 118.179 278.343 118.659C282.41 119.538 284.593 120.811 284.833 122.444C285.304 125.649 276.221 164.385 272.293 180.891C272.03 181.998 271.421 182.981 270.562 183.683C269.704 184.384 268.646 184.765 267.557 184.763Z" fill="#2F2E41"/>
<path d="M236.423 179.791C236.187 179.791 235.952 179.752 235.727 179.677L232.797 178.695C232.495 178.593 232.215 178.427 231.978 178.206C231.74 177.984 231.549 177.714 231.416 177.411C231.284 177.108 231.213 176.779 231.209 176.446C231.205 176.113 231.267 175.783 231.392 175.476L246.935 137.247C249.914 129.954 255.121 123.906 261.738 120.053C261.834 119.998 261.94 119.964 262.049 119.953C262.158 119.942 262.268 119.955 262.372 119.991C262.468 120.023 262.556 120.075 262.631 120.145C262.706 120.215 262.767 120.3 262.808 120.396C264.636 124.61 254.686 144.552 246.691 160.576C242.598 168.781 239.062 175.867 238.66 177.888C238.552 178.426 238.271 178.909 237.864 179.255C237.457 179.602 236.948 179.791 236.423 179.791Z" fill="#2F2E41"/>
<path d="M284.512 188.502C285.058 188.075 285.508 187.527 285.83 186.898C286.153 186.27 286.34 185.574 286.378 184.861C286.416 184.149 286.304 183.436 286.051 182.773C285.798 182.11 285.409 181.514 284.912 181.026L284.788 135.215L274.793 136.972L278.063 181.473C277.335 182.402 276.958 183.579 277.004 184.78C277.049 185.981 277.513 187.123 278.308 187.989C279.103 188.855 280.174 189.386 281.317 189.48C282.46 189.575 283.597 189.227 284.512 188.502Z" fill="#FFB8B8"/>
<path d="M276.374 146.58C275.879 146.58 275.402 146.383 275.041 146.028C274.679 145.673 274.46 145.188 274.427 144.67L273.264 126.185C273.155 124.407 273.722 122.655 274.843 121.315C275.964 119.974 277.547 119.154 279.244 119.035C280.115 118.975 280.989 119.102 281.812 119.408C282.635 119.714 283.39 120.193 284.03 120.815C284.67 121.438 285.182 122.191 285.535 123.028C285.887 123.865 286.073 124.768 286.081 125.683L286.239 144.419C286.243 144.961 286.042 145.481 285.681 145.868C285.319 146.255 284.827 146.476 284.31 146.483L276.398 146.58L276.374 146.58Z" fill="#2F2E41"/>
<path d="M269.223 114.353C275.107 114.353 279.878 109.355 279.878 103.189C279.878 97.0232 275.107 92.0249 269.223 92.0249C263.339 92.0249 258.568 97.0232 258.568 103.189C258.568 109.355 263.339 114.353 269.223 114.353Z" fill="#FFB8B8"/>
<path d="M278.082 111.001C278.876 108.351 279.606 105.227 278.033 102.991C276.9 101.38 274.866 100.756 272.958 100.667C271.05 100.577 269.136 100.916 267.232 100.758C265.328 100.599 263.316 99.8116 262.348 98.0858C261.094 95.848 262.156 92.7657 264.173 91.2587C266.189 89.7516 268.853 89.5412 271.307 89.8922C274.412 90.2785 277.331 91.6468 279.676 93.8149C281.957 96.0208 283.443 99.2004 283.377 102.452C283.311 105.704 281.57 108.942 278.797 110.402" fill="#2F2E41"/>
<path d="M275.425 86.6066C272.875 85.7833 271.698 82.2499 272.839 79.7216C273.979 77.1933 276.895 75.8694 279.543 76.2216C282.19 76.5737 284.523 78.3536 286.133 80.5846C287.742 82.8156 288.712 85.475 289.521 88.14C290.33 90.8049 291.003 93.5276 292.108 96.0731C293.862 99.9843 296.567 103.343 299.951 105.812C303.336 108.281 307.281 109.773 311.391 110.138C313.182 110.274 315.041 110.176 316.673 109.392C318.305 108.608 319.674 107.026 319.857 105.154C320.786 111.803 317.094 118.87 311.248 121.634C305.401 124.397 297.902 122.619 293.76 117.488C289.712 112.474 289.085 105.395 289.183 98.8281C289.209 97.0273 289.273 95.1926 288.798 93.4618C288.323 91.7309 287.2 90.0851 285.563 89.5354C284.242 89.0919 282.812 89.4116 281.458 89.726C280.104 90.0405 278.667 90.3432 277.356 89.8691C276.045 89.3951 274.99 87.8331 275.518 86.4896" fill="#2F2E41"/>
<path d="M317.578 270H203.055C202.94 270 202.829 269.952 202.748 269.867C202.667 269.782 202.621 269.666 202.621 269.545C202.621 269.425 202.667 269.309 202.748 269.224C202.829 269.139 202.94 269.091 203.055 269.091H317.578C317.693 269.091 317.803 269.139 317.885 269.224C317.966 269.309 318.012 269.425 318.012 269.545C318.012 269.666 317.966 269.782 317.885 269.867C317.803 269.952 317.693 270 317.578 270Z" fill="#CCCCCC"/>
</g>
<defs>
<clipPath id="clip0_79_1138">
<rect width="320" height="270" fill="white"/>
</clipPath>
</defs>
</svg>
