<svg width="16" height="16" viewBox="0 0 16 16" fill="none" xmlns="http://www.w3.org/2000/svg">
<g clip-path="url(#clip0_213_3479)">
<path d="M1.33325 8.33338L2.50098 7.31163C3.10849 6.78006 4.0241 6.81055 4.59491 7.38136L7.45473 10.2412C7.91288 10.6993 8.63408 10.7618 9.16419 10.3892L9.36299 10.2495C10.1258 9.71343 11.1579 9.77554 11.8509 10.3993L13.9999 12.3334" stroke="white" stroke-width="1.5" stroke-linecap="round"/>
<path d="M12.3748 1.95697L12.6528 1.67891C13.1135 1.2182 13.8605 1.2182 14.3212 1.67891C14.7819 2.13962 14.7819 2.88658 14.3212 3.34729L14.0432 3.62535M12.3748 1.95697C12.3748 1.95697 12.4095 2.54786 12.9309 3.06923C13.4523 3.5906 14.0432 3.62535 14.0432 3.62535M12.3748 1.95697L9.8184 4.51334C9.64525 4.68649 9.55867 4.77307 9.48422 4.86852C9.39639 4.98113 9.32109 5.10297 9.25965 5.23188C9.20757 5.34117 9.16885 5.45732 9.09142 5.68962L8.8435 6.43337M14.0432 3.62535L11.4868 6.18173C11.3136 6.35488 11.2271 6.44145 11.1316 6.5159C11.019 6.60373 10.8972 6.67903 10.7682 6.74047C10.659 6.79255 10.5428 6.83127 10.3105 6.90871L9.56675 7.15662M9.56675 7.15662L9.0855 7.31704C8.97118 7.35515 8.84515 7.32539 8.75994 7.24018C8.67473 7.15498 8.64498 7.02894 8.68308 6.91462L8.8435 6.43337M9.56675 7.15662L8.8435 6.43337" stroke="white" stroke-width="1.5"/>
<path d="M14.6666 8.00004C14.6666 11.1427 14.6666 12.7141 13.6903 13.6904C12.714 14.6667 11.1426 14.6667 7.99992 14.6667C4.85722 14.6667 3.28587 14.6667 2.30956 13.6904C1.33325 12.7141 1.33325 11.1427 1.33325 8.00004C1.33325 7.24781 1.33325 6.58561 1.34664 6.00004M7.99992 1.33337C4.85722 1.33337 3.28587 1.33337 2.30956 2.30968C2.02635 2.5929 1.82529 2.92618 1.68256 3.33337" stroke="white" stroke-width="1.5" stroke-linecap="round"/>
</g>
<defs>
<clipPath id="clip0_213_3479">
<rect width="16" height="16" fill="white"/>
</clipPath>
</defs>
</svg>
