<svg width="360" height="329" viewBox="0 0 360 329" fill="none" xmlns="http://www.w3.org/2000/svg">
<circle cx="16" cy="82" r="65" fill="#80BCBD"/>
<circle cx="115" cy="147" r="65" fill="#80BCBD"/>
<circle cx="54" cy="184" r="65" fill="#80BCBD"/>
<circle cx="87" cy="65" r="65" fill="#80BCBD"/>
<circle cx="142" cy="233" r="65" fill="#80BCBD"/>
<circle cx="194" cy="103" r="65" fill="#80BCBD"/>
<circle cx="217" cy="168" r="65" transform="rotate(-3.89751 217 168)" fill="#80BCBD"/>
<circle cx="275" cy="174" r="65" fill="#80BCBD"/>
<circle cx="233" cy="264" r="65" fill="#80BCBD"/>
<circle cx="311" cy="258" r="65" fill="#80BCBD"/>
<circle cx="26" cy="104" r="65" fill="#FEFEFE"/>
<circle cx="87" cy="87" r="65" fill="#FEFEFE"/>
<circle cx="184" cy="119" r="65" fill="#FEFEFE"/>
<circle cx="259" cy="189" r="65" fill="#FEFEFE"/>
<circle cx="233" cy="244" r="65" fill="#FEFEFE"/>
<circle cx="151" cy="212" r="65" fill="#FEFEFE"/>
<circle cx="64" cy="164" r="65" fill="#FEFEFE"/>
<ellipse cx="286.5" cy="246.5" rx="61.5" ry="62.5" fill="#FEFEFE"/>
<circle cx="85" cy="93" r="55" fill="#80BCBD"/>
<circle cx="85" cy="142" r="55" fill="#80BCBD"/>
<circle cx="64" cy="159" r="55" fill="#80BCBD"/>
<circle cx="176" cy="124" r="55" fill="#80BCBD"/>
<circle cx="246" cy="188" r="55" fill="#80BCBD"/>
<circle cx="32" cy="109" r="55" fill="#80BCBD"/>
<circle cx="231" cy="239" r="55" fill="#80BCBD"/>
<circle cx="152" cy="207" r="55" fill="#80BCBD"/>
<circle cx="276" cy="243" r="55" fill="#80BCBD"/>
</svg>
